<svg width="81" height="81" viewBox="0 0 1024 1024" xmlns="http://www.w3.org/2000/svg">
  <path fill="#9CA3AF" d="M146.2446 230.7471c0 0 3.2113-56.149 56.491-56.149h27.989v97.620992s0.683 42.837 42.24 42.923 84.053 0 84.053 0 42.496 0.939 42.496-42.837v-97.707h225.024v98.731008s-2.048 41.9738 42.752 41.8509 84.736 0 84.736 0 40.832-0.4649 40.96-42.3629v-98.219h27.648s56.832-3.883 56.832 56.32v338.347l-85.248 83.2-83.456-82.688-197.12 195.328 112.64 112.128H202.87488s-56.5443-0.512-56.5443-56.32-0.086-590.166 0-590.166zM792.2196 961.7132 596.1226 764.5921 708.7626 652.4641 793.2426 735.9201 877.4666 652.4641 989.8506 764.5921zM286.3626 118.4481h56.32v140.288h-56.32zM680.0906 118.4481h56.832v140.288h-56.832z"/>
</svg>
